<svg width="600" height="600" viewBox="0 0 600 600" fill="none" xmlns="http://www.w3.org/2000/svg">
<circle cx="300" cy="300" r="265" stroke="white" stroke-opacity="0.45" stroke-width="70"/>
<path d="M103.335 346V332.88H107.435C108.328 332.88 109.122 333 109.815 333.24C110.508 333.467 111.048 333.853 111.435 334.4C111.835 334.933 112.035 335.653 112.035 336.56C112.035 337.573 111.768 338.393 111.235 339.02C110.702 339.633 109.982 340.053 109.075 340.28L112.415 346H110.535L107.375 340.46H104.995V346H103.335ZM104.995 339.1H107.195C108.222 339.1 109.008 338.893 109.555 338.48C110.102 338.053 110.375 337.413 110.375 336.56C110.375 335.693 110.102 335.087 109.555 334.74C109.008 334.393 108.222 334.22 107.195 334.22H104.995V339.1ZM120.307 346.24C119.44 346.24 118.653 346.04 117.947 345.64C117.24 345.227 116.68 344.64 116.267 343.88C115.853 343.12 115.647 342.213 115.647 341.16C115.647 340.093 115.853 339.18 116.267 338.42C116.693 337.66 117.24 337.073 117.907 336.66C118.573 336.247 119.273 336.04 120.007 336.04C121.247 336.04 122.2 336.453 122.867 337.28C123.547 338.107 123.887 339.213 123.887 340.6C123.887 340.773 123.88 340.947 123.867 341.12C123.867 341.28 123.853 341.42 123.827 341.54H117.267C117.333 342.567 117.653 343.387 118.227 344C118.813 344.613 119.573 344.92 120.507 344.92C120.973 344.92 121.4 344.853 121.787 344.72C122.187 344.573 122.567 344.387 122.927 344.16L123.507 345.24C123.093 345.507 122.62 345.74 122.087 345.94C121.567 346.14 120.973 346.24 120.307 346.24ZM117.247 340.36H122.447C122.447 339.373 122.233 338.627 121.807 338.12C121.393 337.6 120.807 337.34 120.047 337.34C119.367 337.34 118.753 337.607 118.207 338.14C117.673 338.66 117.353 339.4 117.247 340.36ZM132.128 346.24C131.275 346.24 130.502 346.04 129.808 345.64C129.115 345.24 128.568 344.66 128.168 343.9C127.768 343.14 127.568 342.227 127.568 341.16C127.568 340.067 127.782 339.14 128.208 338.38C128.648 337.62 129.222 337.04 129.928 336.64C130.648 336.24 131.422 336.04 132.248 336.04C132.888 336.04 133.435 336.153 133.888 336.38C134.355 336.607 134.755 336.873 135.088 337.18L134.248 338.26C133.968 338.007 133.668 337.8 133.348 337.64C133.042 337.48 132.695 337.4 132.308 337.4C131.722 337.4 131.195 337.56 130.728 337.88C130.275 338.187 129.915 338.627 129.648 339.2C129.395 339.76 129.268 340.413 129.268 341.16C129.268 342.267 129.542 343.167 130.088 343.86C130.648 344.54 131.375 344.88 132.268 344.88C132.722 344.88 133.142 344.787 133.528 344.6C133.915 344.4 134.255 344.167 134.548 343.9L135.268 345C134.828 345.387 134.342 345.693 133.808 345.92C133.275 346.133 132.715 346.24 132.128 346.24ZM139.41 346V331.76H141.05V335.64L140.99 337.64C141.456 337.2 141.943 336.827 142.45 336.52C142.97 336.2 143.563 336.04 144.23 336.04C145.256 336.04 146.003 336.367 146.47 337.02C146.95 337.66 147.19 338.6 147.19 339.84V346H145.55V340.06C145.55 339.153 145.403 338.493 145.11 338.08C144.816 337.667 144.35 337.46 143.71 337.46C143.216 337.46 142.77 337.587 142.37 337.84C141.983 338.093 141.543 338.467 141.05 338.96V346H139.41ZM156.228 346.24C155.362 346.24 154.575 346.04 153.868 345.64C153.162 345.227 152.602 344.64 152.188 343.88C151.775 343.12 151.568 342.213 151.568 341.16C151.568 340.093 151.775 339.18 152.188 338.42C152.615 337.66 153.162 337.073 153.828 336.66C154.495 336.247 155.195 336.04 155.928 336.04C157.168 336.04 158.122 336.453 158.788 337.28C159.468 338.107 159.808 339.213 159.808 340.6C159.808 340.773 159.802 340.947 159.788 341.12C159.788 341.28 159.775 341.42 159.748 341.54H153.188C153.255 342.567 153.575 343.387 154.148 344C154.735 344.613 155.495 344.92 156.428 344.92C156.895 344.92 157.322 344.853 157.708 344.72C158.108 344.573 158.488 344.387 158.848 344.16L159.428 345.24C159.015 345.507 158.542 345.74 158.008 345.94C157.488 346.14 156.895 346.24 156.228 346.24ZM153.168 340.36H158.368C158.368 339.373 158.155 338.627 157.728 338.12C157.315 337.6 156.728 337.34 155.968 337.34C155.288 337.34 154.675 337.607 154.128 338.14C153.595 338.66 153.275 339.4 153.168 340.36ZM164.21 346V336.28H165.57L165.71 338.04H165.77C166.104 337.427 166.51 336.94 166.99 336.58C167.47 336.22 167.984 336.04 168.53 336.04C168.917 336.04 169.264 336.107 169.57 336.24L169.25 337.68C169.09 337.627 168.944 337.587 168.81 337.56C168.677 337.533 168.51 337.52 168.31 337.52C167.897 337.52 167.464 337.687 167.01 338.02C166.57 338.353 166.184 338.933 165.85 339.76V346H164.21ZM176.789 346.24C175.935 346.24 175.162 346.04 174.469 345.64C173.775 345.24 173.229 344.66 172.829 343.9C172.429 343.14 172.229 342.227 172.229 341.16C172.229 340.067 172.442 339.14 172.869 338.38C173.309 337.62 173.882 337.04 174.589 336.64C175.309 336.24 176.082 336.04 176.909 336.04C177.549 336.04 178.095 336.153 178.549 336.38C179.015 336.607 179.415 336.873 179.749 337.18L178.909 338.26C178.629 338.007 178.329 337.8 178.009 337.64C177.702 337.48 177.355 337.4 176.969 337.4C176.382 337.4 175.855 337.56 175.389 337.88C174.935 338.187 174.575 338.627 174.309 339.2C174.055 339.76 173.929 340.413 173.929 341.16C173.929 342.267 174.202 343.167 174.749 343.86C175.309 344.54 176.035 344.88 176.929 344.88C177.382 344.88 177.802 344.787 178.189 344.6C178.575 344.4 178.915 344.167 179.209 343.9L179.929 345C179.489 345.387 179.002 345.693 178.469 345.92C177.935 346.133 177.375 346.24 176.789 346.24ZM184.07 346V331.76H185.71V335.64L185.65 337.64C186.116 337.2 186.603 336.827 187.11 336.52C187.63 336.2 188.223 336.04 188.89 336.04C189.916 336.04 190.663 336.367 191.13 337.02C191.61 337.66 191.85 338.6 191.85 339.84V346H190.21V340.06C190.21 339.153 190.063 338.493 189.77 338.08C189.476 337.667 189.01 337.46 188.37 337.46C187.876 337.46 187.43 337.587 187.03 337.84C186.643 338.093 186.203 338.467 185.71 338.96V346H184.07ZM200.889 346.24C200.022 346.24 199.235 346.04 198.529 345.64C197.822 345.227 197.262 344.64 196.849 343.88C196.435 343.12 196.229 342.213 196.229 341.16C196.229 340.093 196.435 339.18 196.849 338.42C197.275 337.66 197.822 337.073 198.489 336.66C199.155 336.247 199.855 336.04 200.589 336.04C201.829 336.04 202.782 336.453 203.449 337.28C204.129 338.107 204.469 339.213 204.469 340.6C204.469 340.773 204.462 340.947 204.449 341.12C204.449 341.28 204.435 341.42 204.409 341.54H197.849C197.915 342.567 198.235 343.387 198.809 344C199.395 344.613 200.155 344.92 201.089 344.92C201.555 344.92 201.982 344.853 202.369 344.72C202.769 344.573 203.149 344.387 203.509 344.16L204.089 345.24C203.675 345.507 203.202 345.74 202.669 345.94C202.149 346.14 201.555 346.24 200.889 346.24ZM197.829 340.36H203.029C203.029 339.373 202.815 338.627 202.389 338.12C201.975 337.6 201.389 337.34 200.629 337.34C199.949 337.34 199.335 337.607 198.789 338.14C198.255 338.66 197.935 339.4 197.829 340.36ZM215.034 346V332.88H216.754L221.494 341.12L222.914 343.84H222.994C222.954 343.173 222.908 342.487 222.854 341.78C222.814 341.06 222.794 340.353 222.794 339.66V332.88H224.374V346H222.654L217.894 337.74L216.474 335.04H216.394C216.448 335.693 216.494 336.367 216.534 337.06C216.588 337.753 216.614 338.447 216.614 339.14V346H215.034ZM233.604 346.24C232.817 346.24 232.077 346.04 231.384 345.64C230.704 345.24 230.15 344.66 229.724 343.9C229.31 343.14 229.104 342.227 229.104 341.16C229.104 340.067 229.31 339.14 229.724 338.38C230.15 337.62 230.704 337.04 231.384 336.64C232.077 336.24 232.817 336.04 233.604 336.04C234.404 336.04 235.144 336.24 235.824 336.64C236.504 337.04 237.05 337.62 237.464 338.38C237.89 339.14 238.104 340.067 238.104 341.16C238.104 342.227 237.89 343.14 237.464 343.9C237.05 344.66 236.504 345.24 235.824 345.64C235.144 346.04 234.404 346.24 233.604 346.24ZM233.604 344.88C234.444 344.88 235.117 344.54 235.624 343.86C236.144 343.167 236.404 342.267 236.404 341.16C236.404 340.04 236.144 339.133 235.624 338.44C235.117 337.747 234.444 337.4 233.604 337.4C232.777 337.4 232.104 337.747 231.584 338.44C231.064 339.133 230.804 340.04 230.804 341.16C230.804 342.267 231.064 343.167 231.584 343.86C232.104 344.54 232.777 344.88 233.604 344.88ZM242.663 346V336.28H244.023L244.163 338.04H244.223C244.557 337.427 244.963 336.94 245.443 336.58C245.923 336.22 246.437 336.04 246.983 336.04C247.37 336.04 247.717 336.107 248.023 336.24L247.703 337.68C247.543 337.627 247.397 337.587 247.263 337.56C247.13 337.533 246.963 337.52 246.763 337.52C246.35 337.52 245.917 337.687 245.463 338.02C245.023 338.353 244.637 338.933 244.303 339.76V346H242.663ZM254.722 346.24C253.508 346.24 252.535 345.8 251.802 344.92C251.068 344.027 250.702 342.773 250.702 341.16C250.702 340.107 250.895 339.2 251.282 338.44C251.682 337.667 252.202 337.073 252.842 336.66C253.495 336.247 254.188 336.04 254.922 336.04C255.482 336.04 255.968 336.14 256.382 336.34C256.795 336.54 257.215 336.813 257.642 337.16L257.562 335.5V331.76H259.222V346H257.862L257.722 344.86H257.662C257.288 345.233 256.848 345.56 256.342 345.84C255.835 346.107 255.295 346.24 254.722 346.24ZM255.082 344.86C255.935 344.86 256.762 344.413 257.562 343.52V338.44C257.148 338.067 256.748 337.807 256.362 337.66C255.988 337.5 255.602 337.42 255.202 337.42C254.682 337.42 254.208 337.58 253.782 337.9C253.368 338.207 253.035 338.64 252.782 339.2C252.528 339.747 252.402 340.393 252.402 341.14C252.402 342.3 252.635 343.213 253.102 343.88C253.568 344.533 254.228 344.86 255.082 344.86ZM264.495 346V336.28H266.135V346H264.495ZM265.335 334.28C265.015 334.28 264.749 334.187 264.535 334C264.335 333.8 264.235 333.533 264.235 333.2C264.235 332.88 264.335 332.62 264.535 332.42C264.749 332.22 265.015 332.12 265.335 332.12C265.655 332.12 265.915 332.22 266.115 332.42C266.329 332.62 266.435 332.88 266.435 333.2C266.435 333.533 266.329 333.8 266.115 334C265.915 334.187 265.655 334.28 265.335 334.28ZM277.577 350.1V346.64L277.657 344.88C277.271 345.253 276.824 345.573 276.317 345.84C275.824 346.107 275.297 346.24 274.737 346.24C273.524 346.24 272.551 345.8 271.817 344.92C271.084 344.027 270.717 342.773 270.717 341.16C270.717 340.107 270.911 339.2 271.297 338.44C271.697 337.667 272.217 337.073 272.857 336.66C273.511 336.247 274.204 336.04 274.937 336.04C275.497 336.04 275.991 336.14 276.417 336.34C276.844 336.527 277.277 336.813 277.717 337.2H277.757L277.917 336.28H279.237V350.1H277.577ZM275.097 344.86C275.951 344.86 276.777 344.413 277.577 343.52V338.44C277.164 338.067 276.764 337.807 276.377 337.66C276.004 337.5 275.617 337.42 275.217 337.42C274.697 337.42 274.224 337.58 273.797 337.9C273.384 338.207 273.051 338.64 272.797 339.2C272.544 339.747 272.417 340.393 272.417 341.14C272.417 342.3 272.651 343.213 273.117 343.88C273.584 344.533 274.244 344.86 275.097 344.86ZM287.351 346.24C286.324 346.24 285.571 345.92 285.091 345.28C284.611 344.627 284.371 343.68 284.371 342.44V336.28H286.031V342.22C286.031 343.127 286.171 343.787 286.451 344.2C286.744 344.613 287.211 344.82 287.851 344.82C288.358 344.82 288.804 344.693 289.191 344.44C289.591 344.173 290.018 343.753 290.471 343.18V336.28H292.111V346H290.751L290.611 344.48H290.551C290.098 345.013 289.618 345.44 289.111 345.76C288.604 346.08 288.018 346.24 287.351 346.24ZM301.33 346.24C300.463 346.24 299.677 346.04 298.97 345.64C298.263 345.227 297.703 344.64 297.29 343.88C296.877 343.12 296.67 342.213 296.67 341.16C296.67 340.093 296.877 339.18 297.29 338.42C297.717 337.66 298.263 337.073 298.93 336.66C299.597 336.247 300.297 336.04 301.03 336.04C302.27 336.04 303.223 336.453 303.89 337.28C304.57 338.107 304.91 339.213 304.91 340.6C304.91 340.773 304.903 340.947 304.89 341.12C304.89 341.28 304.877 341.42 304.85 341.54H298.29C298.357 342.567 298.677 343.387 299.25 344C299.837 344.613 300.597 344.92 301.53 344.92C301.997 344.92 302.423 344.853 302.81 344.72C303.21 344.573 303.59 344.387 303.95 344.16L304.53 345.24C304.117 345.507 303.643 345.74 303.11 345.94C302.59 346.14 301.997 346.24 301.33 346.24ZM298.27 340.36H303.47C303.47 339.373 303.257 338.627 302.83 338.12C302.417 337.6 301.83 337.34 301.07 337.34C300.39 337.34 299.777 337.607 299.23 338.14C298.697 338.66 298.377 339.4 298.27 340.36ZM311.852 346.24C311.159 346.24 310.499 346.113 309.872 345.86C309.245 345.593 308.699 345.273 308.232 344.9L309.052 343.8C309.479 344.133 309.919 344.413 310.372 344.64C310.825 344.853 311.339 344.96 311.912 344.96C312.552 344.96 313.032 344.813 313.352 344.52C313.672 344.213 313.832 343.853 313.832 343.44C313.832 343.107 313.719 342.827 313.492 342.6C313.279 342.373 312.999 342.187 312.652 342.04C312.319 341.88 311.972 341.733 311.612 341.6C311.159 341.427 310.712 341.233 310.272 341.02C309.832 340.793 309.472 340.507 309.192 340.16C308.912 339.8 308.772 339.347 308.772 338.8C308.772 338.013 309.065 337.36 309.652 336.84C310.252 336.307 311.079 336.04 312.132 336.04C312.732 336.04 313.292 336.147 313.812 336.36C314.332 336.573 314.779 336.833 315.152 337.14L314.352 338.18C314.019 337.927 313.672 337.72 313.312 337.56C312.952 337.4 312.559 337.32 312.132 337.32C311.519 337.32 311.065 337.46 310.772 337.74C310.492 338.02 310.352 338.347 310.352 338.72C310.352 339.027 310.452 339.28 310.652 339.48C310.852 339.667 311.112 339.833 311.432 339.98C311.752 340.113 312.092 340.253 312.452 340.4C312.919 340.573 313.379 340.773 313.832 341C314.285 341.213 314.659 341.507 314.952 341.88C315.259 342.24 315.412 342.727 315.412 343.34C315.412 343.86 315.272 344.34 314.992 344.78C314.725 345.22 314.325 345.573 313.792 345.84C313.272 346.107 312.625 346.24 311.852 346.24ZM325.695 346V336.28H327.335V346H325.695ZM326.535 334.28C326.215 334.28 325.948 334.187 325.735 334C325.535 333.8 325.435 333.533 325.435 333.2C325.435 332.88 325.535 332.62 325.735 332.42C325.948 332.22 326.215 332.12 326.535 332.12C326.855 332.12 327.115 332.22 327.315 332.42C327.528 332.62 327.635 332.88 327.635 333.2C327.635 333.533 327.528 333.8 327.315 334C327.115 334.187 326.855 334.28 326.535 334.28ZM332.617 346V336.28H333.977L334.117 337.68H334.177C334.643 337.213 335.137 336.827 335.657 336.52C336.177 336.2 336.77 336.04 337.437 336.04C338.463 336.04 339.21 336.367 339.677 337.02C340.157 337.66 340.397 338.6 340.397 339.84V346H338.757V340.06C338.757 339.153 338.61 338.493 338.317 338.08C338.023 337.667 337.557 337.46 336.917 337.46C336.423 337.46 335.977 337.587 335.577 337.84C335.19 338.093 334.75 338.467 334.257 338.96V346H332.617ZM348.614 346.24C347.574 346.24 346.847 345.94 346.434 345.34C346.034 344.74 345.834 343.96 345.834 343V337.62H344.394V336.38L345.914 336.28L346.114 333.56H347.494V336.28H350.114V337.62H347.494V343.02C347.494 343.62 347.601 344.087 347.814 344.42C348.041 344.74 348.434 344.9 348.994 344.9C349.167 344.9 349.354 344.873 349.554 344.82C349.754 344.753 349.934 344.693 350.094 344.64L350.414 345.88C350.147 345.973 349.854 346.053 349.534 346.12C349.227 346.2 348.921 346.24 348.614 346.24ZM357.978 346.24C357.112 346.24 356.325 346.04 355.618 345.64C354.912 345.227 354.352 344.64 353.938 343.88C353.525 343.12 353.318 342.213 353.318 341.16C353.318 340.093 353.525 339.18 353.938 338.42C354.365 337.66 354.912 337.073 355.578 336.66C356.245 336.247 356.945 336.04 357.678 336.04C358.918 336.04 359.872 336.453 360.538 337.28C361.218 338.107 361.558 339.213 361.558 340.6C361.558 340.773 361.552 340.947 361.538 341.12C361.538 341.28 361.525 341.42 361.498 341.54H354.938C355.005 342.567 355.325 343.387 355.898 344C356.485 344.613 357.245 344.92 358.178 344.92C358.645 344.92 359.072 344.853 359.458 344.72C359.858 344.573 360.238 344.387 360.598 344.16L361.178 345.24C360.765 345.507 360.292 345.74 359.758 345.94C359.238 346.14 358.645 346.24 357.978 346.24ZM354.918 340.36H360.118C360.118 339.373 359.905 338.627 359.478 338.12C359.065 337.6 358.478 337.34 357.718 337.34C357.038 337.34 356.425 337.607 355.878 338.14C355.345 338.66 355.025 339.4 354.918 340.36ZM365.96 346V336.28H367.32L367.46 338.04H367.52C367.854 337.427 368.26 336.94 368.74 336.58C369.22 336.22 369.734 336.04 370.28 336.04C370.667 336.04 371.014 336.107 371.32 336.24L371 337.68C370.84 337.627 370.694 337.587 370.56 337.56C370.427 337.533 370.26 337.52 370.06 337.52C369.647 337.52 369.214 337.687 368.76 338.02C368.32 338.353 367.934 338.933 367.6 339.76V346H365.96ZM378.019 346.24C376.805 346.24 375.832 345.8 375.099 344.92C374.365 344.027 373.999 342.773 373.999 341.16C373.999 340.107 374.192 339.2 374.579 338.44C374.979 337.667 375.499 337.073 376.139 336.66C376.792 336.247 377.485 336.04 378.219 336.04C378.779 336.04 379.265 336.14 379.679 336.34C380.092 336.54 380.512 336.813 380.939 337.16L380.859 335.5V331.76H382.519V346H381.159L381.019 344.86H380.959C380.585 345.233 380.145 345.56 379.639 345.84C379.132 346.107 378.592 346.24 378.019 346.24ZM378.379 344.86C379.232 344.86 380.059 344.413 380.859 343.52V338.44C380.445 338.067 380.045 337.807 379.659 337.66C379.285 337.5 378.899 337.42 378.499 337.42C377.979 337.42 377.505 337.58 377.079 337.9C376.665 338.207 376.332 338.64 376.079 339.2C375.825 339.747 375.699 340.393 375.699 341.14C375.699 342.3 375.932 343.213 376.399 343.88C376.865 344.533 377.525 344.86 378.379 344.86ZM387.792 346V336.28H389.432V346H387.792ZM388.632 334.28C388.312 334.28 388.046 334.187 387.832 334C387.632 333.8 387.532 333.533 387.532 333.2C387.532 332.88 387.632 332.62 387.832 332.42C388.046 332.22 388.312 332.12 388.632 332.12C388.952 332.12 389.212 332.22 389.412 332.42C389.626 332.62 389.732 332.88 389.732 333.2C389.732 333.533 389.626 333.8 389.412 334C389.212 334.187 388.952 334.28 388.632 334.28ZM397.254 346.24C396.561 346.24 395.901 346.113 395.274 345.86C394.648 345.593 394.101 345.273 393.634 344.9L394.454 343.8C394.881 344.133 395.321 344.413 395.774 344.64C396.228 344.853 396.741 344.96 397.314 344.96C397.954 344.96 398.434 344.813 398.754 344.52C399.074 344.213 399.234 343.853 399.234 343.44C399.234 343.107 399.121 342.827 398.894 342.6C398.681 342.373 398.401 342.187 398.054 342.04C397.721 341.88 397.374 341.733 397.014 341.6C396.561 341.427 396.114 341.233 395.674 341.02C395.234 340.793 394.874 340.507 394.594 340.16C394.314 339.8 394.174 339.347 394.174 338.8C394.174 338.013 394.468 337.36 395.054 336.84C395.654 336.307 396.481 336.04 397.534 336.04C398.134 336.04 398.694 336.147 399.214 336.36C399.734 336.573 400.181 336.833 400.554 337.14L399.754 338.18C399.421 337.927 399.074 337.72 398.714 337.56C398.354 337.4 397.961 337.32 397.534 337.32C396.921 337.32 396.468 337.46 396.174 337.74C395.894 338.02 395.754 338.347 395.754 338.72C395.754 339.027 395.854 339.28 396.054 339.48C396.254 339.667 396.514 339.833 396.834 339.98C397.154 340.113 397.494 340.253 397.854 340.4C398.321 340.573 398.781 340.773 399.234 341C399.688 341.213 400.061 341.507 400.354 341.88C400.661 342.24 400.814 342.727 400.814 343.34C400.814 343.86 400.674 344.34 400.394 344.78C400.128 345.22 399.728 345.573 399.194 345.84C398.674 346.107 398.028 346.24 397.254 346.24ZM405.093 346V336.28H406.733V346H405.093ZM405.933 334.28C405.613 334.28 405.346 334.187 405.133 334C404.933 333.8 404.833 333.533 404.833 333.2C404.833 332.88 404.933 332.62 405.133 332.42C405.346 332.22 405.613 332.12 405.933 332.12C406.253 332.12 406.513 332.22 406.713 332.42C406.926 332.62 407.033 332.88 407.033 333.2C407.033 333.533 406.926 333.8 406.713 334C406.513 334.187 406.253 334.28 405.933 334.28ZM412.015 350.1V336.28H413.375L413.515 337.4H413.575C414.015 337.027 414.495 336.707 415.015 336.44C415.548 336.173 416.102 336.04 416.675 336.04C417.928 336.04 418.882 336.493 419.535 337.4C420.188 338.293 420.515 339.493 420.515 341C420.515 342.093 420.315 343.033 419.915 343.82C419.528 344.607 419.015 345.207 418.375 345.62C417.748 346.033 417.062 346.24 416.315 346.24C415.862 346.24 415.408 346.14 414.955 345.94C414.515 345.74 414.068 345.467 413.615 345.12L413.655 346.82V350.1H412.015ZM416.035 344.86C416.835 344.86 417.495 344.52 418.015 343.84C418.548 343.147 418.815 342.2 418.815 341C418.815 339.933 418.615 339.073 418.215 338.42C417.828 337.753 417.175 337.42 416.255 337.42C415.842 337.42 415.422 337.533 414.995 337.76C414.582 337.987 414.135 338.313 413.655 338.74V343.84C414.095 344.213 414.522 344.48 414.935 344.64C415.348 344.787 415.715 344.86 416.035 344.86ZM426.849 346.24C426.235 346.24 425.789 346.053 425.509 345.68C425.242 345.293 425.109 344.747 425.109 344.04V331.76H426.749V344.16C426.749 344.413 426.795 344.6 426.889 344.72C426.982 344.827 427.089 344.88 427.209 344.88C427.262 344.88 427.309 344.88 427.349 344.88C427.402 344.867 427.475 344.853 427.569 344.84L427.789 346.08C427.682 346.133 427.555 346.173 427.409 346.2C427.262 346.227 427.075 346.24 426.849 346.24ZM432.206 346V336.28H433.846V346H432.206ZM433.046 334.28C432.726 334.28 432.46 334.187 432.246 334C432.046 333.8 431.946 333.533 431.946 333.2C431.946 332.88 432.046 332.62 432.246 332.42C432.46 332.22 432.726 332.12 433.046 332.12C433.366 332.12 433.626 332.22 433.826 332.42C434.04 332.62 434.146 332.88 434.146 333.2C434.146 333.533 434.04 333.8 433.826 334C433.626 334.187 433.366 334.28 433.046 334.28ZM439.128 346V336.28H440.488L440.628 337.68H440.688C441.155 337.213 441.648 336.827 442.168 336.52C442.688 336.2 443.282 336.04 443.948 336.04C444.975 336.04 445.722 336.367 446.188 337.02C446.668 337.66 446.908 338.6 446.908 339.84V346H445.268V340.06C445.268 339.153 445.122 338.493 444.828 338.08C444.535 337.667 444.068 337.46 443.428 337.46C442.935 337.46 442.488 337.587 442.088 337.84C441.702 338.093 441.262 338.467 440.768 338.96V346H439.128ZM454.306 346.24C453.492 346.24 452.812 346 452.266 345.52C451.732 345.027 451.466 344.347 451.466 343.48C451.466 342.413 451.939 341.6 452.886 341.04C453.846 340.467 455.359 340.067 457.426 339.84C457.426 339.427 457.366 339.033 457.246 338.66C457.139 338.287 456.939 337.987 456.646 337.76C456.366 337.52 455.959 337.4 455.426 337.4C454.866 337.4 454.339 337.507 453.846 337.72C453.352 337.933 452.912 338.173 452.526 338.44L451.886 337.3C452.339 337.007 452.892 336.727 453.546 336.46C454.212 336.18 454.932 336.04 455.706 336.04C456.892 336.04 457.752 336.407 458.286 337.14C458.819 337.86 459.086 338.827 459.086 340.04V346H457.726L457.586 344.84H457.526C457.072 345.213 456.572 345.54 456.026 345.82C455.492 346.1 454.919 346.24 454.306 346.24ZM454.786 344.92C455.252 344.92 455.692 344.807 456.106 344.58C456.519 344.353 456.959 344.033 457.426 343.62V340.92C455.812 341.12 454.679 341.42 454.026 341.82C453.386 342.22 453.066 342.733 453.066 343.36C453.066 343.907 453.232 344.307 453.566 344.56C453.899 344.8 454.306 344.92 454.786 344.92ZM464.144 346V336.28H465.784V346H464.144ZM464.984 334.28C464.664 334.28 464.397 334.187 464.184 334C463.984 333.8 463.884 333.533 463.884 333.2C463.884 332.88 463.984 332.62 464.184 332.42C464.397 332.22 464.664 332.12 464.984 332.12C465.304 332.12 465.564 332.22 465.764 332.42C465.977 332.62 466.084 332.88 466.084 333.2C466.084 333.533 465.977 333.8 465.764 334C465.564 334.187 465.304 334.28 464.984 334.28ZM471.066 346V336.28H472.426L472.566 338.04H472.626C472.959 337.427 473.366 336.94 473.846 336.58C474.326 336.22 474.839 336.04 475.386 336.04C475.772 336.04 476.119 336.107 476.426 336.24L476.106 337.68C475.946 337.627 475.799 337.587 475.666 337.56C475.532 337.533 475.366 337.52 475.166 337.52C474.752 337.52 474.319 337.687 473.866 338.02C473.426 338.353 473.039 338.933 472.706 339.76V346H471.066ZM483.744 346.24C482.877 346.24 482.091 346.04 481.384 345.64C480.677 345.227 480.117 344.64 479.704 343.88C479.291 343.12 479.084 342.213 479.084 341.16C479.084 340.093 479.291 339.18 479.704 338.42C480.131 337.66 480.677 337.073 481.344 336.66C482.011 336.247 482.711 336.04 483.444 336.04C484.684 336.04 485.637 336.453 486.304 337.28C486.984 338.107 487.324 339.213 487.324 340.6C487.324 340.773 487.317 340.947 487.304 341.12C487.304 341.28 487.291 341.42 487.264 341.54H480.704C480.771 342.567 481.091 343.387 481.664 344C482.251 344.613 483.011 344.92 483.944 344.92C484.411 344.92 484.837 344.853 485.224 344.72C485.624 344.573 486.004 344.387 486.364 344.16L486.944 345.24C486.531 345.507 486.057 345.74 485.524 345.94C485.004 346.14 484.411 346.24 483.744 346.24ZM480.684 340.36H485.884C485.884 339.373 485.671 338.627 485.244 338.12C484.831 337.6 484.244 337.34 483.484 337.34C482.804 337.34 482.191 337.607 481.644 338.14C481.111 338.66 480.791 339.4 480.684 340.36ZM494.266 346.24C493.573 346.24 492.913 346.113 492.286 345.86C491.659 345.593 491.113 345.273 490.646 344.9L491.466 343.8C491.893 344.133 492.333 344.413 492.786 344.64C493.239 344.853 493.753 344.96 494.326 344.96C494.966 344.96 495.446 344.813 495.766 344.52C496.086 344.213 496.246 343.853 496.246 343.44C496.246 343.107 496.133 342.827 495.906 342.6C495.693 342.373 495.413 342.187 495.066 342.04C494.733 341.88 494.386 341.733 494.026 341.6C493.573 341.427 493.126 341.233 492.686 341.02C492.246 340.793 491.886 340.507 491.606 340.16C491.326 339.8 491.186 339.347 491.186 338.8C491.186 338.013 491.479 337.36 492.066 336.84C492.666 336.307 493.493 336.04 494.546 336.04C495.146 336.04 495.706 336.147 496.226 336.36C496.746 336.573 497.193 336.833 497.566 337.14L496.766 338.18C496.433 337.927 496.086 337.72 495.726 337.56C495.366 337.4 494.973 337.32 494.546 337.32C493.933 337.32 493.479 337.46 493.186 337.74C492.906 338.02 492.766 338.347 492.766 338.72C492.766 339.027 492.866 339.28 493.066 339.48C493.266 339.667 493.526 339.833 493.846 339.98C494.166 340.113 494.506 340.253 494.866 340.4C495.333 340.573 495.793 340.773 496.246 341C496.699 341.213 497.073 341.507 497.366 341.88C497.673 342.24 497.826 342.727 497.826 343.34C497.826 343.86 497.686 344.34 497.406 344.78C497.139 345.22 496.739 345.573 496.206 345.84C495.686 346.107 495.039 346.24 494.266 346.24Z" fill="white"/>
<path d="M44.9057 316.996C40.3683 316.996 36.3013 315.889 32.7047 313.676C29.1633 311.407 26.3413 308.17 24.2387 303.965C22.1913 299.76 21.1677 294.697 21.1677 288.776C21.1677 282.911 22.219 277.875 24.3217 273.67C26.4243 269.465 29.3017 266.228 32.9537 263.959C36.6057 261.69 40.728 260.556 45.3207 260.556C48.6407 260.556 51.5733 261.248 54.1187 262.631C56.664 263.959 58.7113 265.508 60.2607 267.279L56.5257 271.761C55.087 270.212 53.4547 268.967 51.6287 268.026C49.8027 267.085 47.7277 266.615 45.4037 266.615C41.973 266.615 38.9573 267.528 36.3567 269.354C33.8113 271.125 31.8193 273.642 30.3807 276.907C28.9973 280.172 28.3057 284.073 28.3057 288.61C28.3057 293.147 28.9973 297.104 30.3807 300.479C31.764 303.799 33.7007 306.372 36.1907 308.198C38.736 310.024 41.724 310.937 45.1547 310.937C47.7553 310.937 50.0793 310.384 52.1267 309.277C54.174 308.17 56.0553 306.676 57.7707 304.795L61.5887 309.111C59.4307 311.601 56.996 313.538 54.2847 314.921C51.5733 316.304 48.447 316.996 44.9057 316.996ZM97.693 316.996C93.1557 316.996 89.1163 315.834 85.575 313.51C82.089 311.186 79.35 307.894 77.358 303.633C75.4213 299.372 74.453 294.337 74.453 288.527C74.453 282.717 75.4213 277.737 77.358 273.587C79.35 269.382 82.089 266.172 85.575 263.959C89.1163 261.69 93.1557 260.556 97.693 260.556C102.286 260.556 106.325 261.69 109.811 263.959C113.297 266.172 116.036 269.382 118.028 273.587C120.02 277.737 121.016 282.717 121.016 288.527C121.016 294.337 120.02 299.372 118.028 303.633C116.036 307.894 113.297 311.186 109.811 313.51C106.325 315.834 102.286 316.996 97.693 316.996ZM97.693 310.937C100.958 310.937 103.78 310.024 106.159 308.198C108.594 306.317 110.475 303.716 111.803 300.396C113.131 297.021 113.795 293.064 113.795 288.527C113.795 281.776 112.329 276.437 109.396 272.508C106.463 268.579 102.562 266.615 97.693 266.615C92.8237 266.615 88.9227 268.579 85.99 272.508C83.0573 276.437 81.591 281.776 81.591 288.527C81.591 293.064 82.255 297.021 83.583 300.396C84.911 303.716 86.7923 306.317 89.227 308.198C91.6617 310.024 94.4837 310.937 97.693 310.937ZM141.024 316V261.552H149.324L159.782 290.602C160.446 292.483 161.083 294.392 161.691 296.329C162.355 298.21 163.019 300.092 163.683 301.973H164.015C164.679 300.092 165.288 298.21 165.841 296.329C166.45 294.392 167.086 292.483 167.75 290.602L178.042 261.552H186.425V316H179.951V286.037C179.951 283.602 180.062 280.919 180.283 277.986C180.505 274.998 180.698 272.314 180.864 269.935H180.532L176.216 282.302L165.924 310.522H161.359L151.067 282.302L146.751 269.935H146.419C146.585 272.314 146.751 274.998 146.917 277.986C147.139 280.919 147.249 283.602 147.249 286.037V316H141.024ZM209.629 316V261.552H225.15C229.245 261.552 232.814 262.05 235.857 263.046C238.9 264.042 241.28 265.73 242.995 268.109C244.71 270.433 245.568 273.587 245.568 277.571C245.568 283.27 243.714 287.503 240.007 290.27C236.3 293.037 231.458 294.42 225.482 294.42H216.518V316H209.629ZM216.518 288.776H224.652C229.411 288.776 232.924 287.891 235.193 286.12C237.517 284.294 238.679 281.444 238.679 277.571C238.679 273.642 237.462 270.931 235.027 269.437C232.648 267.888 229.079 267.113 224.32 267.113H216.518V288.776ZM264.941 316V261.552H296.315V267.362H271.83V284.46H292.497V290.353H271.83V310.107H297.145V316H264.941ZM317.01 316V261.552H324.148L343.819 295.748L349.712 307.036H350.044C349.878 304.269 349.684 301.42 349.463 298.487C349.297 295.499 349.214 292.566 349.214 289.689V261.552H355.771V316H348.633L328.879 281.721L322.986 270.516H322.654C322.875 273.227 323.069 276.022 323.235 278.899C323.456 281.776 323.567 284.654 323.567 287.531V316H317.01ZM379.049 316V261.552H392.661C401.072 261.552 407.463 263.904 411.834 268.607C416.206 273.255 418.391 279.895 418.391 288.527C418.391 297.214 416.206 303.965 411.834 308.779C407.518 313.593 401.238 316 392.993 316H379.049ZM385.938 310.356H392.163C398.527 310.356 403.285 308.447 406.439 304.629C409.649 300.756 411.253 295.388 411.253 288.527C411.253 281.666 409.649 276.409 406.439 272.757C403.285 269.05 398.527 267.196 392.163 267.196H385.938V310.356ZM438.414 316V261.552H445.303V316H438.414ZM487.857 316.996C484.149 316.996 480.802 316.249 477.814 314.755C474.881 313.261 472.557 310.799 470.842 307.368C469.126 303.937 468.269 299.317 468.269 293.507V261.552H475.158V293.673C475.158 298.044 475.711 301.503 476.818 304.048C477.98 306.538 479.501 308.309 481.383 309.36C483.319 310.411 485.477 310.937 487.857 310.937C490.291 310.937 492.477 310.411 494.414 309.36C496.35 308.309 497.872 306.538 498.979 304.048C500.141 301.503 500.722 298.044 500.722 293.673V261.552H507.362V293.507C507.362 299.317 506.504 303.937 504.789 307.368C503.073 310.799 500.749 313.261 497.817 314.755C494.884 316.249 491.564 316.996 487.857 316.996ZM530.314 316V261.552H538.614L549.072 290.602C549.736 292.483 550.372 294.392 550.981 296.329C551.645 298.21 552.309 300.092 552.973 301.973H553.305C553.969 300.092 554.577 298.21 555.131 296.329C555.739 294.392 556.376 292.483 557.04 290.602L567.332 261.552H575.715V316H569.241V286.037C569.241 283.602 569.351 280.919 569.573 277.986C569.794 274.998 569.988 272.314 570.154 269.935H569.822L565.506 282.302L555.214 310.522H550.649L540.357 282.302L536.041 269.935H535.709C535.875 272.314 536.041 274.998 536.207 277.986C536.428 280.919 536.539 283.602 536.539 286.037V316H530.314Z" fill="white"/>
<path d="M222.014 428V424.94H228.584V403.79H223.364V401.405C224.684 401.165 225.824 400.88 226.784 400.55C227.774 400.19 228.659 399.77 229.439 399.29H232.274V424.94H238.214V428H222.014ZM248.793 428C248.973 424.4 249.348 421.175 249.918 418.325C250.518 415.445 251.388 412.745 252.528 410.225C253.698 407.675 255.228 405.095 257.118 402.485H242.808V399.29H261.303V401.585C259.593 403.745 258.198 405.83 257.118 407.84C256.038 409.82 255.198 411.83 254.598 413.87C253.998 415.88 253.548 418.04 253.248 420.35C252.948 422.66 252.738 425.21 252.618 428H248.793ZM276.345 439.25V394.25H278.955V439.25H276.345ZM293.868 428V425.795C296.748 422.915 299.193 420.395 301.203 418.235C303.213 416.045 304.743 414.08 305.793 412.34C306.843 410.57 307.368 408.92 307.368 407.39C307.368 405.74 306.918 404.39 306.018 403.34C305.118 402.29 303.753 401.765 301.923 401.765C300.723 401.765 299.613 402.11 298.593 402.8C297.573 403.46 296.643 404.27 295.803 405.23L293.688 403.115C294.888 401.795 296.163 400.745 297.513 399.965C298.893 399.155 300.513 398.75 302.373 398.75C305.043 398.75 307.143 399.53 308.673 401.09C310.203 402.62 310.968 404.66 310.968 407.21C310.968 409.01 310.458 410.84 309.438 412.7C308.448 414.53 307.068 416.465 305.298 418.505C303.558 420.515 301.548 422.705 299.268 425.075C300.048 425.015 300.858 424.955 301.698 424.895C302.538 424.835 303.333 424.805 304.083 424.805H312.408V428H293.868ZM325.641 428.54C322.761 428.54 320.496 427.25 318.846 424.67C317.226 422.06 316.416 418.355 316.416 413.555C316.416 408.725 317.226 405.05 318.846 402.53C320.496 400.01 322.761 398.75 325.641 398.75C328.491 398.75 330.726 400.01 332.346 402.53C333.996 405.05 334.821 408.725 334.821 413.555C334.821 418.355 333.996 422.06 332.346 424.67C330.726 427.25 328.491 428.54 325.641 428.54ZM325.641 425.57C327.321 425.57 328.671 424.625 329.691 422.735C330.711 420.815 331.221 417.755 331.221 413.555C331.221 409.355 330.711 406.34 329.691 404.51C328.671 402.65 327.321 401.72 325.641 401.72C323.961 401.72 322.596 402.65 321.546 404.51C320.526 406.34 320.016 409.355 320.016 413.555C320.016 417.755 320.526 420.815 321.546 422.735C322.596 424.625 323.961 425.57 325.641 425.57ZM338.604 428V425.795C341.484 422.915 343.929 420.395 345.939 418.235C347.949 416.045 349.479 414.08 350.529 412.34C351.579 410.57 352.104 408.92 352.104 407.39C352.104 405.74 351.654 404.39 350.754 403.34C349.854 402.29 348.489 401.765 346.659 401.765C345.459 401.765 344.349 402.11 343.329 402.8C342.309 403.46 341.379 404.27 340.539 405.23L338.424 403.115C339.624 401.795 340.899 400.745 342.249 399.965C343.629 399.155 345.249 398.75 347.109 398.75C349.779 398.75 351.879 399.53 353.409 401.09C354.939 402.62 355.704 404.66 355.704 407.21C355.704 409.01 355.194 410.84 354.174 412.7C353.184 414.53 351.804 416.465 350.034 418.505C348.294 420.515 346.284 422.705 344.004 425.075C344.784 425.015 345.594 424.955 346.434 424.895C347.274 424.835 348.069 424.805 348.819 424.805H357.144V428H338.604ZM360.972 428V425.795C363.852 422.915 366.297 420.395 368.307 418.235C370.317 416.045 371.847 414.08 372.897 412.34C373.947 410.57 374.472 408.92 374.472 407.39C374.472 405.74 374.022 404.39 373.122 403.34C372.222 402.29 370.857 401.765 369.027 401.765C367.827 401.765 366.717 402.11 365.697 402.8C364.677 403.46 363.747 404.27 362.907 405.23L360.792 403.115C361.992 401.795 363.267 400.745 364.617 399.965C365.997 399.155 367.617 398.75 369.477 398.75C372.147 398.75 374.247 399.53 375.777 401.09C377.307 402.62 378.072 404.66 378.072 407.21C378.072 409.01 377.562 410.84 376.542 412.7C375.552 414.53 374.172 416.465 372.402 418.505C370.662 420.515 368.652 422.705 366.372 425.075C367.152 425.015 367.962 424.955 368.802 424.895C369.642 424.835 370.437 424.805 371.187 424.805H379.512V428H360.972Z" fill="white"/>
<path d="M199.261 215.885L195.222 211.772L193.706 210.862L199.261 169L204.815 210.862L203.3 211.772L199.261 215.885ZM199.261 279.397L193.706 237.536L195.222 236.626L199.261 232.512L203.3 236.626L204.815 237.536L199.261 279.397Z" fill="#1FC4F4"/>
<path d="M186.265 229.681L165.399 224.199L186.265 218.717L187.058 220.085L191.096 224.199L187.058 228.312L186.265 229.681Z" fill="#7ED3F7"/>
<path d="M212.256 229.68L211.463 228.312L207.424 224.199L211.463 220.086L212.256 218.717L233.121 224.199L212.256 229.68Z" fill="#7ED3F7"/>
<path d="M175.317 248.581L186.265 229.681L187.777 230.078H193.488V235.894L193.705 237.537L175.317 248.581Z" fill="#44C8F5"/>
<path d="M193.705 237.536L193.488 235.894V230.078H196.87L199.261 232.513L195.222 236.625L193.705 237.536Z" fill="#00B6F1"/>
<path d="M193.488 230.078H187.777L186.265 229.681L187.058 228.312L191.096 224.199L193.488 226.634V230.078Z" fill="#00BBF2"/>
<path d="M196.869 230.078H193.488V226.634L196.869 230.078Z" fill="#00B2F0"/>
<path d="M212.256 218.717L210.745 218.321H205.033V212.503L204.815 210.861L223.204 199.816L212.256 218.717Z" fill="#44C8F5"/>
<path d="M205.033 218.32H201.651L199.261 215.885L203.299 211.772L204.815 210.862L205.033 212.504V218.32Z" fill="#00B6F1"/>
<path d="M207.424 224.199L205.033 221.763V218.32H210.745L212.256 218.717L211.463 220.085L207.424 224.199Z" fill="#00BBF2"/>
<path d="M205.033 221.765L201.651 218.321H205.033V221.765Z" fill="#00B2F0"/>
<path d="M223.204 248.581L204.815 237.537L205.033 235.894V230.078H210.745L212.255 229.681L223.204 248.581Z" fill="#9FDDF9"/>
<path d="M204.815 237.536L203.299 236.625L199.261 232.513L201.651 230.078H205.033V235.894L204.815 237.536Z" fill="#00BBF2"/>
<path d="M210.745 230.078H205.033V226.634L207.424 224.199L211.463 228.312L212.256 229.681L210.745 230.078Z" fill="#2AC5F4"/>
<path d="M205.033 230.078H201.651L205.033 226.634V230.078Z" fill="#00B5F1"/>
<path d="M186.265 218.717L175.317 199.816L193.705 210.861L193.488 212.503V218.321H187.777L186.265 218.717Z" fill="#9FDDF9"/>
<path d="M196.869 218.32H193.488V212.504L193.705 210.861L195.222 211.772L199.261 215.885L196.869 218.32Z" fill="#00BBF2"/>
<path d="M191.097 224.199L187.058 220.085L186.265 218.717L187.777 218.32H193.488V221.763L191.097 224.199Z" fill="#2AC5F4"/>
<path d="M193.488 221.765V218.32H196.87L193.488 221.765Z" fill="#00B5F1"/>
<path d="M201.651 218.32H196.869L199.261 215.885L201.651 218.32ZM199.261 232.513L196.869 230.077H201.651L199.261 232.513Z" fill="#00B3F0"/>
<path d="M205.033 226.634V221.763L207.424 224.199L205.033 226.634Z" fill="#00B6F1"/>
<path d="M193.488 226.634L191.096 224.199L193.488 221.765V226.634Z" fill="#00B6F1"/>
<path d="M201.651 230.078H196.87L193.488 226.634V221.765L196.87 218.32H201.651L205.033 221.763V226.634L201.651 230.078Z" fill="#00B0F0"/>
<path d="M204.741 223.958L201.057 223.957L202.849 223.468L202.726 223L200.942 223.485L204.125 221.616L203.884 221.192L200.703 223.063L202.008 221.734L201.671 221.392L200.368 222.718L202.204 219.481L201.788 219.236L199.95 222.48L200.428 220.661L199.969 220.536L199.491 222.349L199.492 218.61H199.012L199.012 222.346L198.538 220.537L198.073 220.663L198.551 222.473L196.717 219.236L196.301 219.481L198.134 222.714L196.836 221.39L196.495 221.736L197.798 223.062L194.619 221.192L194.379 221.615L197.555 223.482L195.781 222.997L195.656 223.47L197.44 223.956L193.765 223.954V224.444L197.425 224.443L195.656 224.925L195.781 225.397L197.561 224.911L194.379 226.783L194.618 227.202L197.797 225.333L196.495 226.659L196.835 227.005L198.139 225.675L196.302 228.917L196.713 229.16L198.549 225.924L198.072 227.733L198.537 227.859L199.013 226.043L199.014 229.788H199.489L199.49 226.042L199.969 227.861L200.428 227.736L199.951 225.918L201.79 229.161L202.202 228.918L200.363 225.673L201.671 227.004L202.006 226.662L200.701 225.331L203.886 227.203L204.124 226.784L200.936 224.909L202.725 225.396L202.848 224.929L201.068 224.442L204.741 224.442V223.958Z" fill="white"/>
</svg>
