<?xml version="1.0" encoding="utf-8"?>
<!-- Generator: Adobe Illustrator 16.0.4, SVG Export Plug-In . SVG Version: 6.00 Build 0)  -->
<!DOCTYPE svg PUBLIC "-//W3C//DTD SVG 1.1//EN" "http://www.w3.org/Graphics/SVG/1.1/DTD/svg11.dtd">
<svg version="1.1" id="Layer_1" xmlns="http://www.w3.org/2000/svg" xmlns:xlink="http://www.w3.org/1999/xlink" x="0px" y="0px"
	 width="312.801px" height="180.729px" viewBox="0 0 312.801 180.729" enable-background="new 0 0 312.801 180.729"
	 xml:space="preserve">
<path fill="#1FC4F4" d="M254.416,75.967l-6.633-6.633l-2.489-1.468l9.122-67.507l9.121,67.507l-2.488,1.468L254.416,75.967z
	 M254.416,178.387l-9.122-67.506l2.489-1.468l6.633-6.634l6.633,6.634l2.488,1.468L254.416,178.387"/>
<polygon fill="#7ED3F7" points="233.074,98.214 198.809,89.374 233.074,80.533 234.376,82.74 241.008,89.374 234.376,96.007 "/>
<polygon fill="#7ED3F7" points="275.757,98.213 274.455,96.006 267.822,89.373 274.455,82.741 275.757,80.533 310.021,89.373 "/>
<polygon fill="#44C8F5" points="215.096,128.693 233.075,98.214 235.557,98.854 244.936,98.854 244.936,108.233 245.293,110.882 "/>
<polygon fill="#00B6F1" points="245.293,110.881 244.936,108.233 244.936,98.854 250.49,98.854 254.416,102.781 247.783,109.412 "/>
<polygon fill="#00BBF2" points="244.936,98.854 235.557,98.854 233.074,98.214 234.376,96.007 241.008,89.373 244.936,93.301 "/>
<polygon fill="#00B2F0" points="250.489,98.854 244.936,98.854 244.936,93.301 "/>
<polygon fill="#44C8F5" points="275.757,80.533 273.275,79.894 263.895,79.894 263.895,70.513 263.538,67.865 293.736,50.053 "/>
<polygon fill="#00B6F1" points="263.895,79.893 258.342,79.893 254.416,75.966 261.048,69.334 263.537,67.866 263.895,70.514 "/>
<polygon fill="#00BBF2" points="267.822,89.374 263.895,85.446 263.895,79.893 273.275,79.893 275.757,80.533 274.455,82.74 "/>
<polygon fill="#00B2F0" points="263.895,85.448 258.342,79.894 263.895,79.894 "/>
<polygon fill="#9FDDF9" points="293.736,128.693 263.538,110.882 263.896,108.233 263.896,98.854 273.275,98.854 275.756,98.214 "/>
<polygon fill="#00BBF2" points="263.537,110.881 261.048,109.412 254.416,102.781 258.342,98.854 263.895,98.854 263.895,108.233 
	"/>
<polygon fill="#2AC5F4" points="273.275,98.854 263.895,98.854 263.895,93.301 267.822,89.373 274.455,96.007 275.757,98.214 "/>
<polygon fill="#00B5F1" points="263.895,98.854 258.342,98.854 263.895,93.301 "/>
<polygon fill="#9FDDF9" points="233.074,80.533 215.096,50.053 245.293,67.865 244.936,70.513 244.936,79.894 235.557,79.894 "/>
<polygon fill="#00BBF2" points="250.489,79.893 244.936,79.893 244.936,70.514 245.292,67.865 247.783,69.334 254.416,75.966 "/>
<polygon fill="#2AC5F4" points="241.009,89.374 234.376,82.74 233.075,80.533 235.557,79.893 244.936,79.893 244.936,85.446 "/>
<polygon fill="#00B5F1" points="244.936,85.448 244.936,79.893 250.49,79.893 "/>
<path fill="#00B3F0" d="M258.342,79.893h-7.854l3.928-3.926L258.342,79.893z M254.416,102.781L254.416,102.781l-3.928-3.928h7.854
	L254.416,102.781"/>
<polygon fill="#00B6F1" points="263.895,93.301 263.895,85.446 267.822,89.373 "/>
<polygon fill="#00B6F1" points="244.936,93.301 241.008,89.373 244.936,85.448 "/>
<polygon fill="#00B0F0" points="258.342,98.854 250.49,98.854 244.936,93.301 244.936,85.448 250.49,79.893 258.342,79.893 
	263.895,85.446 263.895,93.301 "/>
<polygon fill="#FFFFFF" points="263.416,88.985 257.366,88.983 260.309,88.194 260.107,87.44 257.177,88.223 262.404,85.208 
	262.009,84.524 256.785,87.542 258.927,85.399 258.375,84.847 256.234,86.985 259.25,81.766 258.566,81.371 255.548,86.601 
	256.333,83.668 255.58,83.466 254.794,86.391 254.796,80.36 254.007,80.36 254.008,86.386 253.229,83.468 252.466,83.671 
	253.25,86.59 250.238,81.371 249.555,81.765 252.566,86.979 250.434,84.844 249.875,85.402 252.014,87.54 246.794,84.524 
	246.4,85.207 251.615,88.217 248.701,87.435 248.497,88.198 251.426,88.981 245.391,88.979 245.391,89.768 251.402,89.767 
	248.497,90.544 248.702,91.306 251.625,90.522 246.4,93.54 246.791,94.216 252.012,91.203 249.874,93.34 250.432,93.898 
	252.574,91.754 249.557,96.982 250.232,97.373 253.248,92.156 252.464,95.073 253.227,95.276 254.01,92.348 254.011,98.386 
	254.791,98.386 254.792,92.345 255.58,95.279 256.333,95.077 255.549,92.145 258.57,97.375 259.246,96.984 256.227,91.751 
	258.374,93.897 258.925,93.346 256.781,91.199 262.011,94.218 262.402,93.543 257.167,90.518 260.105,91.304 260.307,90.551 
	257.384,89.766 263.416,89.765 "/>
<g>
	<path fill="#FFFFFF" d="M43.619,78.866C45.51,80.03,48.274,81,51.184,81c4.316,0,6.837-2.279,6.837-5.577
		c0-3.055-1.746-4.801-6.159-6.498c-5.334-1.891-8.631-4.655-8.631-9.262c0-5.092,4.219-8.874,10.571-8.874
		c3.346,0,5.771,0.776,7.225,1.6l-1.164,3.443c-1.067-0.582-3.249-1.552-6.207-1.552c-4.461,0-6.159,2.667-6.159,4.898
		c0,3.055,1.988,4.558,6.498,6.304c5.528,2.133,8.341,4.801,8.341,9.601c0,5.043-3.734,9.408-11.444,9.408
		c-3.152,0-6.595-0.922-8.341-2.085L43.619,78.866z"/>
	<path fill="#FFFFFF" d="M70.633,73.047c0.097,5.771,3.782,8.147,8.05,8.147c3.055,0,4.898-0.534,6.498-1.212l0.728,3.055
		c-1.503,0.679-4.074,1.455-7.808,1.455c-7.225,0-11.541-4.753-11.541-11.833c0-7.08,4.17-12.657,11.008-12.657
		c7.662,0,9.698,6.741,9.698,11.057c0,0.873-0.097,1.552-0.146,1.988H70.633z M83.144,69.992c0.048-2.716-1.115-6.935-5.916-6.935
		c-4.316,0-6.207,3.977-6.547,6.935H83.144z"/>
	<path fill="#FFFFFF" d="M92.555,66.888c0-2.425-0.049-4.413-0.194-6.353h3.782l0.243,3.879h0.097
		c1.164-2.231,3.879-4.413,7.759-4.413c3.249,0,8.292,1.94,8.292,9.99v14.014h-4.268V70.477c0-3.783-1.406-6.935-5.431-6.935
		c-2.812,0-4.995,1.988-5.722,4.364c-0.194,0.534-0.291,1.261-0.291,1.988v14.111h-4.267V66.888z"/>
	<path fill="#FFFFFF" d="M124.418,53.795v6.741h6.11v3.249h-6.11v12.656c0,2.91,0.824,4.559,3.201,4.559
		c1.115,0,1.939-0.146,2.473-0.291l0.194,3.201c-0.825,0.339-2.134,0.582-3.783,0.582c-1.988,0-3.588-0.631-4.606-1.794
		c-1.212-1.261-1.649-3.346-1.649-6.11V63.785h-3.637v-3.249h3.637V54.91L124.418,53.795z"/>
	<path fill="#FFFFFF" d="M140.083,53.941c0.049,1.455-1.018,2.619-2.715,2.619c-1.503,0-2.57-1.164-2.57-2.619
		c0-1.503,1.116-2.667,2.667-2.667C139.065,51.274,140.083,52.438,140.083,53.941z M135.332,84.006v-23.47h4.267v23.47H135.332z"/>
	<path fill="#FFFFFF" d="M146.68,66.888c0-2.425-0.048-4.413-0.194-6.353h3.782l0.242,3.879h0.097
		c1.164-2.231,3.879-4.413,7.759-4.413c3.249,0,8.292,1.94,8.292,9.99v14.014h-4.268V70.477c0-3.783-1.406-6.935-5.431-6.935
		c-2.813,0-4.995,1.988-5.723,4.364c-0.194,0.534-0.291,1.261-0.291,1.988v14.111h-4.267V66.888z"/>
	<path fill="#FFFFFF" d="M175.974,73.047c0.097,5.771,3.782,8.147,8.05,8.147c3.055,0,4.897-0.534,6.498-1.212l0.728,3.055
		c-1.504,0.679-4.074,1.455-7.808,1.455c-7.226,0-11.541-4.753-11.541-11.833c0-7.08,4.17-12.657,11.008-12.657
		c7.661,0,9.698,6.741,9.698,11.057c0,0.873-0.097,1.552-0.146,1.988H175.974z M188.484,69.992c0.049-2.716-1.115-6.935-5.916-6.935
		c-4.315,0-6.207,3.977-6.547,6.935H188.484z"/>
	<path fill="#FFFFFF" d="M197.896,49.576h4.268v34.43h-4.268V49.576z"/>
</g>
<g>
	<path fill="#FFFFFF" d="M90.955,128.568V95.884h4.606l10.475,16.536c2.425,3.831,4.316,7.273,5.868,10.619l0.097-0.048
		c-0.388-4.364-0.485-8.341-0.485-13.433V95.884h3.977v32.684h-4.268l-10.377-16.584c-2.279-3.637-4.461-7.371-6.11-10.911
		l-0.146,0.049c0.243,4.122,0.339,8.05,0.339,13.48v13.966H90.955z"/>
	<path fill="#FFFFFF" d="M143.961,116.639c0,8.68-6.013,12.462-11.687,12.462c-6.353,0-11.25-4.655-11.25-12.074
		c0-7.855,5.14-12.463,11.638-12.463C139.403,104.564,143.961,109.462,143.961,116.639z M125.34,116.881
		c0,5.141,2.958,9.02,7.128,9.02c4.073,0,7.128-3.831,7.128-9.116c0-3.977-1.988-9.02-7.032-9.02
		C127.522,107.765,125.34,112.42,125.34,116.881z"/>
	<path fill="#FFFFFF" d="M149.348,112.42c0-2.765-0.049-5.141-0.194-7.322h3.734l0.146,4.606h0.194
		c1.067-3.152,3.637-5.141,6.499-5.141c0.484,0,0.824,0.049,1.212,0.146v4.025c-0.437-0.097-0.873-0.146-1.455-0.146
		c-3.006,0-5.14,2.279-5.722,5.479c-0.097,0.582-0.194,1.261-0.194,1.988v12.511h-4.219V112.42z"/>
	<path fill="#FFFFFF" d="M171.511,98.357v6.741h6.11v3.249h-6.11v12.656c0,2.909,0.824,4.559,3.201,4.559
		c1.115,0,1.939-0.146,2.473-0.291l0.194,3.2c-0.825,0.339-2.134,0.582-3.783,0.582c-1.987,0-3.588-0.631-4.606-1.794
		c-1.212-1.262-1.648-3.347-1.648-6.11v-12.802h-3.637v-3.249h3.637v-5.626L171.511,98.357z"/>
	<path fill="#FFFFFF" d="M182.424,94.138h4.268v14.645h0.097c0.679-1.212,1.746-2.278,3.056-3.006
		c1.261-0.728,2.764-1.213,4.364-1.213c3.151,0,8.195,1.94,8.195,10.038v13.966h-4.268v-13.48c0-3.782-1.406-6.983-5.432-6.983
		c-2.764,0-4.946,1.94-5.722,4.268c-0.242,0.582-0.291,1.212-0.291,2.037v14.159h-4.268V94.138z"/>
</g>
</svg>
