<?xml version="1.0" encoding="UTF-8" standalone="no"?>
<!DOCTYPE svg PUBLIC "-//W3C//DTD SVG 1.1//EN" "http://www.w3.org/Graphics/SVG/1.1/DTD/svg11.dtd">
<svg width="100%" height="100%" viewBox="0 0 112 179" version="1.1" xmlns="http://www.w3.org/2000/svg" xmlns:xlink="http://www.w3.org/1999/xlink" xml:space="preserve" xmlns:serif="http://www.serif.com/" style="fill-rule:evenodd;clip-rule:evenodd;stroke-linejoin:round;stroke-miterlimit:2;">
    <g transform="matrix(1,0,0,1,-198.809,-0.359)">
        <g>
            <path d="M254.416,75.967L247.783,69.334L245.294,67.866L254.416,0.359L263.537,67.866L261.049,69.334L254.416,75.967ZM254.416,178.387L245.294,110.881L247.783,109.413L254.416,102.779L261.049,109.413L263.537,110.881L254.416,178.387" style="fill:rgb(31,196,244);fill-rule:nonzero;"/>
            <path d="M233.074,98.214L198.809,89.374L233.074,80.533L234.376,82.74L241.008,89.374L234.376,96.007L233.074,98.214Z" style="fill:rgb(126,211,247);fill-rule:nonzero;"/>
            <path d="M275.757,98.213L274.455,96.006L267.822,89.373L274.455,82.741L275.757,80.533L310.021,89.373L275.757,98.213Z" style="fill:rgb(126,211,247);fill-rule:nonzero;"/>
            <path d="M215.096,128.693L233.075,98.214L235.557,98.854L244.936,98.854L244.936,108.233L245.293,110.882L215.096,128.693Z" style="fill:rgb(68,200,245);fill-rule:nonzero;"/>
            <path d="M245.293,110.881L244.936,108.233L244.936,98.854L250.49,98.854L254.416,102.781L247.783,109.412L245.293,110.881Z" style="fill:rgb(0,182,241);fill-rule:nonzero;"/>
            <path d="M244.936,98.854L235.557,98.854L233.074,98.214L234.376,96.007L241.008,89.373L244.936,93.301L244.936,98.854Z" style="fill:rgb(0,187,242);fill-rule:nonzero;"/>
            <path d="M250.489,98.854L244.936,98.854L244.936,93.301L250.489,98.854Z" style="fill:rgb(0,178,240);fill-rule:nonzero;"/>
            <path d="M275.757,80.533L273.275,79.894L263.895,79.894L263.895,70.513L263.538,67.865L293.736,50.053L275.757,80.533Z" style="fill:rgb(68,200,245);fill-rule:nonzero;"/>
            <path d="M263.895,79.893L258.342,79.893L254.416,75.966L261.048,69.334L263.537,67.866L263.895,70.514L263.895,79.893Z" style="fill:rgb(0,182,241);fill-rule:nonzero;"/>
            <path d="M267.822,89.374L263.895,85.446L263.895,79.893L273.275,79.893L275.757,80.533L274.455,82.74L267.822,89.374Z" style="fill:rgb(0,187,242);fill-rule:nonzero;"/>
            <path d="M263.895,85.448L258.342,79.894L263.895,79.894L263.895,85.448Z" style="fill:rgb(0,178,240);fill-rule:nonzero;"/>
            <path d="M293.736,128.693L263.538,110.882L263.896,108.233L263.896,98.854L273.275,98.854L275.756,98.214L293.736,128.693Z" style="fill:rgb(159,221,249);fill-rule:nonzero;"/>
            <path d="M263.537,110.881L261.048,109.412L254.416,102.781L258.342,98.854L263.895,98.854L263.895,108.233L263.537,110.881Z" style="fill:rgb(0,187,242);fill-rule:nonzero;"/>
            <path d="M273.275,98.854L263.895,98.854L263.895,93.301L267.822,89.373L274.455,96.007L275.757,98.214L273.275,98.854Z" style="fill:rgb(42,197,244);fill-rule:nonzero;"/>
            <path d="M263.895,98.854L258.342,98.854L263.895,93.301L263.895,98.854Z" style="fill:rgb(0,181,241);fill-rule:nonzero;"/>
            <path d="M233.074,80.533L215.096,50.053L245.293,67.865L244.936,70.513L244.936,79.894L235.557,79.894L233.074,80.533Z" style="fill:rgb(159,221,249);fill-rule:nonzero;"/>
            <path d="M250.489,79.893L244.936,79.893L244.936,70.514L245.292,67.865L247.783,69.334L254.416,75.966L250.489,79.893Z" style="fill:rgb(0,187,242);fill-rule:nonzero;"/>
            <path d="M241.009,89.374L234.376,82.74L233.075,80.533L235.557,79.893L244.936,79.893L244.936,85.446L241.009,89.374Z" style="fill:rgb(42,197,244);fill-rule:nonzero;"/>
            <path d="M244.936,85.448L244.936,79.893L250.49,79.893L244.936,85.448Z" style="fill:rgb(0,181,241);fill-rule:nonzero;"/>
            <path d="M258.342,79.893L250.488,79.893L254.416,75.967L258.342,79.893ZM254.416,102.781L250.488,98.853L258.342,98.853L254.416,102.781" style="fill:rgb(0,179,240);fill-rule:nonzero;"/>
            <path d="M263.895,93.301L263.895,85.446L267.822,89.373L263.895,93.301Z" style="fill:rgb(0,182,241);fill-rule:nonzero;"/>
            <path d="M244.936,93.301L241.008,89.373L244.936,85.448L244.936,93.301Z" style="fill:rgb(0,182,241);fill-rule:nonzero;"/>
            <path d="M258.342,98.854L250.49,98.854L244.936,93.301L244.936,85.448L250.49,79.893L258.342,79.893L263.895,85.446L263.895,93.301L258.342,98.854Z" style="fill:rgb(0,176,240);fill-rule:nonzero;"/>
            <path d="M263.416,88.985L257.366,88.983L260.309,88.194L260.107,87.44L257.177,88.223L262.404,85.208L262.009,84.524L256.785,87.542L258.927,85.399L258.375,84.847L256.234,86.985L259.25,81.766L258.566,81.371L255.548,86.601L256.333,83.668L255.58,83.466L254.794,86.391L254.796,80.36L254.007,80.36L254.008,86.386L253.229,83.468L252.466,83.671L253.25,86.59L250.238,81.371L249.555,81.765L252.566,86.979L250.434,84.844L249.875,85.402L252.014,87.54L246.794,84.524L246.4,85.207L251.615,88.217L248.701,87.435L248.497,88.198L251.426,88.981L245.391,88.979L245.391,89.768L251.402,89.767L248.497,90.544L248.702,91.306L251.625,90.522L246.4,93.54L246.791,94.216L252.012,91.203L249.874,93.34L250.432,93.898L252.574,91.754L249.557,96.982L250.232,97.373L253.248,92.156L252.464,95.073L253.227,95.276L254.01,92.348L254.011,98.386L254.791,98.386L254.792,92.345L255.58,95.279L256.333,95.077L255.549,92.145L258.57,97.375L259.246,96.984L256.227,91.751L258.374,93.897L258.925,93.346L256.781,91.199L262.011,94.218L262.402,93.543L257.167,90.518L260.105,91.304L260.307,90.551L257.384,89.766L263.416,89.765L263.416,88.985Z" style="fill:white;fill-rule:nonzero;"/>
        </g>
    </g>
</svg>
